<?xml version="1.0" standalone="no"?>
<!DOCTYPE svg PUBLIC "-//W3C//DTD SVG 20010904//EN"
 "http://www.w3.org/TR/2001/REC-SVG-20010904/DTD/svg10.dtd">
<svg version="1.0" xmlns="http://www.w3.org/2000/svg"
 width="70.000000pt" height="95.000000pt" viewBox="0 0 70.000000 95.000000"
 preserveAspectRatio="xMidYMid meet">

<g transform="translate(0.000000,95.000000) scale(0.100000,-0.100000)"
fill="#000000" stroke="none">
<path d="M661 905 c-6 -79 -30 -267 -34 -272 -18 -18 -21 19 -10 119 6 62 12
120 13 129 0 15 -11 13 -92 -10 l-93 -27 -15 -104 -15 -105 -49 -3 -49 -3 6
38 c12 77 19 163 14 163 -2 0 -10 -45 -17 -100 -11 -91 -20 -115 -34 -92 -3 5
0 41 5 81 6 40 9 75 7 77 -3 2 -45 -8 -95 -22 l-91 -26 -6 -59 -7 -59 -40 0
-40 0 3 -127 c3 -122 4 -128 23 -125 17 2 23 -6 33 -43 18 -67 40 -95 97 -121
46 -22 63 -24 217 -24 l166 0 7 78 c8 92 13 112 27 112 11 0 5 -133 -9 -205
-3 -16 -2 -27 2 -23 4 4 13 54 19 110 11 102 11 103 39 106 l27 3 0 129 c0 97
-3 129 -13 133 -11 4 -11 26 0 129 7 67 12 132 10 143 l-4 20 -2 -20z m-567
-301 c3 -9 6 -27 6 -41 0 -34 10 -23 19 19 6 27 12 33 31 33 24 0 25 -4 29
-65 l4 -65 11 65 c10 60 13 65 38 68 25 3 27 0 33 -45 10 -76 25 -97 18 -26
-7 72 6 85 61 65 20 -8 32 -9 34 -2 2 5 12 10 22 10 19 0 29 -25 31 -80 1 -31
3 -28 13 20 l11 55 78 2 77 2 0 -89 c0 -80 2 -88 21 -93 13 -4 20 -12 17 -24
-3 -15 -14 -18 -78 -18 l-75 0 -5 75 -5 75 -8 -55 c-14 -93 -17 -101 -41 -98
-17 2 -23 13 -30 56 -6 29 -14 51 -20 49 -12 -5 -12 -13 -1 -70 7 -35 6 -39
-11 -35 -11 2 -24 18 -31 38 l-11 35 -4 -35 c-3 -31 -6 -35 -36 -38 -27 -3
-35 1 -39 17 -7 27 -29 27 -36 0 -5 -17 -12 -20 -44 -17 -34 3 -38 6 -35 28 2
25 2 25 -10 3 -19 -32 -32 -32 -39 2 l-7 30 -1 -33 c-1 -26 -5 -33 -18 -30
-16 3 -18 18 -21 116 l-3 112 25 0 c13 0 27 -7 30 -16z m178 -252 c-2 -11 2
-23 7 -27 6 -3 9 0 6 7 -8 22 8 35 53 41 l43 5 -3 -46 c-3 -45 -4 -47 -37 -50
-19 -2 -44 -1 -56 2 -26 7 -46 46 -38 75 7 27 29 21 25 -7z"/>
<path d="M548 573 c-24 -6 -23 -39 2 -46 17 -4 20 0 20 24 0 16 -1 28 -2 28
-2 -1 -11 -3 -20 -6z"/>
<path d="M330 540 c0 -18 4 -29 10 -25 6 3 10 15 10 25 0 10 -4 22 -10 25 -6
4 -10 -7 -10 -25z"/>
<path d="M228 495 c-3 -14 -1 -25 3 -25 5 0 9 11 9 25 0 14 -2 25 -4 25 -2 0
-6 -11 -8 -25z"/>
<path d="M548 483 c-25 -6 -23 -43 2 -43 15 0 20 7 20 25 0 14 -1 24 -2 24 -2
-1 -11 -3 -20 -6z"/>
<path d="M78 80 c-3 -17 -1 -30 4 -30 4 0 8 14 8 30 0 39 -6 39 -12 0z"/>
<path d="M242 80 c0 -19 2 -27 5 -17 2 9 2 25 0 35 -3 9 -5 1 -5 -18z"/>
<path d="M302 90 c0 -14 2 -19 5 -12 2 6 2 18 0 25 -3 6 -5 1 -5 -13z"/>
<path d="M122 70 c0 -19 2 -27 5 -17 2 9 2 25 0 35 -3 9 -5 1 -5 -18z"/>
<path d="M202 70 c0 -19 2 -27 5 -17 2 9 2 25 0 35 -3 9 -5 1 -5 -18z"/>
<path d="M392 70 c0 -19 2 -27 5 -17 2 9 2 25 0 35 -3 9 -5 1 -5 -18z"/>
<path d="M430 63 c-3 -23 -2 -39 3 -34 5 5 7 24 5 42 -3 33 -4 33 -8 -8z"/>
<path d="M631 75 c0 -17 -6 -36 -13 -43 -9 -9 -9 -12 0 -12 17 0 24 22 19 57
l-4 28 -2 -30z"/>
<path d="M478 55 c-2 -19 -1 -35 3 -35 4 0 9 16 11 35 2 19 1 35 -3 35 -4 0
-9 -16 -11 -35z"/>
<path d="M592 70 c0 -14 2 -19 5 -12 2 6 2 18 0 25 -3 6 -5 1 -5 -13z"/>
<path d="M540 60 c-13 -8 -12 -10 3 -10 9 0 17 5 17 10 0 12 -1 12 -20 0z"/>
</g>
</svg>
